<svg width="40" height="40" viewBox="0 0 40 40" fill="none" xmlns="http://www.w3.org/2000/svg">
<circle cx="20" cy="20" r="19" fill="white" stroke="#3E2723" stroke-width="2"/>
<path d="M19.9091 30C20.6457 30 21.2429 28.3142 21.2429 26.2347C21.2429 24.1552 20.6457 22.4695 19.9091 22.4695C19.1725 22.4695 18.5753 24.1552 18.5753 26.2347C18.5753 28.3142 19.1725 30 19.9091 30Z" fill="#995068"/>
<path d="M15.2496 12.4486C14.1703 15.5293 12.2399 20.8948 11.9678 20.7579C11.6081 20.5611 7.2645 9.77012 7.0188 9.16254L15.2496 12.4486Z" fill="#80A6CB"/>
<path d="M32.9661 9.13752C32.9661 9.13752 28.3768 20.5446 28.0083 20.7414C27.6398 20.9468 23.9982 10.3441 23.9982 10.3441C23.9982 10.3441 30.5267 8.57272 32.9661 9.13752Z" fill="#80A6CB"/>
<path d="M15.9867 10.344C15.9867 10.344 15.6884 11.2168 15.2496 12.4491L7.01878 9.16305C7.01001 9.14593 7.01001 9.13737 7.01001 9.13737C9.44943 8.56402 15.9867 10.344 15.9867 10.344Z" fill="#393430"/>
<path d="M24.042 10.3178C24.042 10.3178 24.3403 11.1821 24.7791 12.4229L32.9924 9.13682C33.0012 9.11971 33.0099 9.11115 33.0099 9.11115C30.5705 8.54636 24.042 10.3178 24.042 10.3178Z" fill="#393430"/>
<path d="M25.0951 15.3067C24.9196 15.3067 24.7529 15.3153 24.5774 15.3324C24.5598 14.9644 24.4984 14.605 24.4019 14.2627C23.8403 12.2603 21.9713 10.7884 19.7512 10.7884C17.7944 10.7884 16.1096 11.9351 15.355 13.5952C15.1093 14.1258 14.9689 14.6991 14.9338 15.3067C13.0735 15.3153 11.4677 16.3593 10.6692 17.8911C10.7394 18.3532 10.8535 18.8324 11.0377 19.3287C11.2922 20.0476 11.6695 20.8006 12.1697 21.5708C12.3189 21.7505 12.4593 21.9388 12.626 22.127C12.819 22.3495 13.0296 22.572 13.2666 22.7688C13.521 22.9828 13.8018 23.1796 14.1089 23.3336C14.6793 23.6246 15.0128 24.1808 15.276 24.8055C15.548 25.4644 15.7235 26.1918 15.9868 26.7737C16.8818 29.2639 18.6807 29.1869 19.9443 27.8263C19.953 27.8177 19.9881 27.7236 19.9969 27.7065C19.9969 27.7322 20.032 27.8263 20.0496 27.8263C21.3131 29.1869 23.1208 29.2639 24.007 26.7737C24.2703 26.1918 24.4458 25.4559 24.7178 24.7969C24.9723 24.1723 25.3145 23.616 25.8849 23.3336C26.2885 23.1368 26.6307 22.8715 26.9291 22.5806C27.1835 22.341 27.4029 22.0842 27.6135 21.8275C27.6837 21.7419 27.7451 21.6564 27.8153 21.5708C28.3243 20.8006 28.6928 20.0476 28.9473 19.3287C29.1316 18.7982 29.2632 18.2847 29.3246 17.7969C28.5173 16.3165 26.9291 15.3067 25.0951 15.3067Z" fill="#393430"/>
<path d="M29.342 17.8741C28.526 16.3937 26.9377 15.3839 25.1038 15.3839C24.9283 15.3839 24.7528 15.3924 24.586 15.4096C24.5685 15.0416 24.5071 14.6822 24.4105 14.3484C23.849 12.3374 21.9799 10.8655 19.7598 10.8655C17.803 10.8655 16.1183 12.0208 15.3636 13.6724C15.1267 14.203 14.9775 14.7763 14.9512 15.3839C14.0211 15.3924 13.1524 15.6492 12.4153 16.1113C11.6869 16.5648 11.0815 17.1981 10.6866 17.9511C10.3093 15.4866 11.336 13.4413 13.0207 12.0037C13.8719 11.2677 14.8986 10.6944 15.9954 10.3093C17.2678 9.84721 18.6454 9.64183 19.9617 9.71029H20.0582C21.3744 9.64183 22.7521 9.84721 24.0244 10.3093C25.1213 10.6944 26.148 11.2677 27.0079 12.0037C28.6664 13.4242 29.693 15.4438 29.342 17.8741Z" fill="#BFC0C4"/>
<path d="M21.7869 25.4217C21.5851 25.1821 20.9621 25.3618 20.4005 25.8239C20.2338 25.9608 20.1022 26.0978 19.9969 26.2432C19.8828 26.1063 19.7512 25.9608 19.5932 25.8239C19.0316 25.3618 18.4086 25.1821 18.2068 25.4217C18.005 25.6613 18.2945 26.2261 18.8561 26.6882C19.2598 27.0134 19.681 27.1931 19.9705 27.1845C19.9793 27.1845 19.9881 27.1845 20.0056 27.1845C20.0144 27.1845 20.0232 27.1845 20.0407 27.1845C20.3303 27.1931 20.7515 27.0134 21.1552 26.6882C21.6992 26.2261 21.9975 25.6613 21.7869 25.4217Z" fill="#0D0B0A"/>
<path d="M25.955 19.8764C24.7002 20.2101 23.8403 19.7138 23.5507 19.226C23.2787 18.7811 23.3577 18.259 23.7789 17.8226C24.0421 17.5488 24.437 17.3006 24.9635 17.1295C25.0161 17.1123 25.0775 17.0952 25.1302 17.0781C26.2709 16.7444 27.28 17.0696 27.4994 17.8397C27.6223 18.3018 27.2274 19.5427 25.955 19.8764Z" fill="#80A6CB"/>
<path d="M25.1821 17.6087C25.1821 18.4474 24.8664 19.1234 24.4804 19.1234C24.1208 19.1234 23.8225 18.55 23.7787 17.797C24.0418 17.5232 24.4366 17.275 24.9628 17.1038C25.0155 17.0867 25.0769 17.0696 25.1295 17.0525C25.1558 17.2322 25.1821 17.4205 25.1821 17.6087Z" fill="#393430"/>
<path d="M25.612 18.5158C26.0965 18.5158 26.4892 18.3587 26.4892 18.1649C26.4892 17.9711 26.0965 17.8141 25.612 17.8141C25.1276 17.8141 24.7349 17.9711 24.7349 18.1649C24.7349 18.3587 25.1276 18.5158 25.612 18.5158Z" fill="white"/>
<path d="M14.0212 19.8764C15.2761 20.2101 16.136 19.7138 16.4256 19.226C16.6976 18.7811 16.6186 18.259 16.1974 17.8226C15.9342 17.5488 15.5393 17.3006 15.0128 17.1295C14.9602 17.1123 14.8987 17.0952 14.8461 17.0781C13.7053 16.7444 12.6962 17.0696 12.4769 17.8397C12.354 18.3018 12.7489 19.5427 14.0212 19.8764Z" fill="#80A6CB"/>
<path d="M14.7926 17.5917C14.7926 18.4303 15.1084 19.1064 15.4943 19.1064C15.854 19.1064 16.1522 18.533 16.196 17.78C15.9329 17.5061 15.5382 17.258 15.0119 17.0868C14.9593 17.0697 14.8979 17.0526 14.8452 17.0355C14.8189 17.2066 14.7926 17.3949 14.7926 17.5917Z" fill="#393430"/>
<path d="M14.5645 18.5158C15.049 18.5158 15.4417 18.3587 15.4417 18.1649C15.4417 17.9711 15.049 17.8141 14.5645 17.8141C14.0801 17.8141 13.6874 17.9711 13.6874 18.1649C13.6874 18.3587 14.0801 18.5158 14.5645 18.5158Z" fill="white"/>
</svg>
