<svg width="40" height="40" viewBox="0 0 40 40" fill="none" xmlns="http://www.w3.org/2000/svg">
<circle cx="20" cy="20" r="19" fill="white" stroke="#3E2723" stroke-width="2"/>
<path d="M18.2772 14.6489C15.1901 8.97724 10.2539 8.72642 10.0503 9.13096C9.84664 9.5355 10.3109 13.678 10.5634 15.6683C10.7263 16.9386 11.2477 17.3755 11.6142 17.5858C11.4024 17.9176 11.2802 18.314 11.2802 18.7347C11.2802 19.9484 12.274 20.9354 13.4958 20.9354C14.7176 20.9354 15.7114 19.9484 15.7114 18.7347C15.7114 18.6053 15.6951 18.4839 15.6788 18.3626C17.8862 18.4192 19.9796 17.7881 18.2772 14.6489Z" fill="#F48FB1"/>
<path d="M21.7228 14.648C24.8099 8.97635 29.7461 8.71744 29.9497 9.13007C30.1534 9.5427 29.6891 13.6771 29.4366 15.6674C29.2737 16.9377 28.7523 17.3746 28.3858 17.585C28.5976 17.9167 28.7198 18.3131 28.7198 18.7338C28.7198 19.9475 27.726 20.9345 26.5042 20.9345C25.2824 20.9345 24.2886 19.9475 24.2886 18.7338C24.2886 18.6044 24.3049 18.483 24.3212 18.3617C22.1138 18.4183 20.0204 17.7872 21.7228 14.648Z" fill="#F48FB1"/>
<path d="M27.5794 22.1642L26.7893 24.4943V24.5024C26.7893 24.5024 26.6753 24.8342 26.5449 25.2306C26.3413 25.8455 26.0725 26.6222 26.0643 26.6384C25.6326 27.3909 25.0299 28.0543 24.3049 28.5883L24.2968 28.5964C23.7266 29.0171 23.0831 29.3569 22.3826 29.5915C22.3663 29.5996 22.3419 29.6077 22.3256 29.6158C22.0405 29.7129 21.7391 29.7857 21.4377 29.8424C21.0712 29.9152 20.6965 29.9556 20.3136 29.9718C20.2159 29.9799 20.11 29.9799 20.0122 29.9799C20.0122 29.9799 20.0122 29.9799 20.0041 29.9799C19.9226 29.9799 19.8412 29.9799 19.7597 29.9718C19.3606 29.9556 18.9615 29.9152 18.5786 29.8424C18.2691 29.7857 17.9677 29.7048 17.6745 29.6077C16.0372 29.0656 14.6932 27.9734 13.9113 26.5737V26.5656L13.4551 25.2306L13.2352 24.5753V24.5672L12.4125 22.2127C12.274 21.792 12.217 21.3632 12.2333 20.9344C12.2659 20.2467 12.494 19.5751 12.9175 19.0088L15.4508 15.6026C15.8173 15.1009 16.3142 14.7207 16.8681 14.4779C17.3079 14.2838 17.7885 14.1867 18.2854 14.1867H21.8613C23.0098 14.1867 24.085 14.7449 24.7448 15.6754L27.1233 19.0331C27.7749 19.9392 27.9378 21.1043 27.5794 22.1642Z" fill="#8B6C60"/>
<path d="M23.8419 26.0112C23.3776 24.0856 21.8381 22.0953 20.0135 22.0953C18.1808 22.0953 16.6413 24.0856 16.1852 26.0112C15.2892 25.4368 14.3117 25.1779 13.4564 25.2507L13.9126 26.5857V26.5938C14.6945 27.9935 16.0385 29.0857 17.6758 29.6278C17.9527 29.7411 18.2623 29.822 18.5881 29.8786C18.9546 29.9514 19.3538 29.9838 19.761 29.9919C19.8425 29.9919 19.9239 30 20.0054 30C20.0054 30 20.0054 30 20.0135 30C20.1113 30 20.2172 30 20.3149 29.9919C20.7059 29.9838 21.0806 29.9433 21.4309 29.8786C21.7485 29.822 22.0499 29.7411 22.3269 29.6278C22.3432 29.6197 22.3676 29.6116 22.3839 29.6035C23.0844 29.3689 23.7279 29.0291 24.2981 28.6084C24.3062 28.6084 24.3062 28.6084 24.3062 28.6003C25.0312 28.0663 25.6258 27.4028 26.0656 26.6504C26.0738 26.6342 26.3344 25.8575 26.5462 25.2426C25.6991 25.186 24.7298 25.4449 23.8419 26.0112Z" fill="#F9E6D8"/>
<path d="M22.1871 28.3539C21.4947 28.5723 20.7209 28.726 19.9959 28.7018C19.271 28.726 18.5053 28.5804 17.8129 28.362C16.0616 27.7956 14.7991 26.7923 16.0209 27.1241C16.3956 27.2293 16.8029 27.2697 17.202 27.2697C18.6193 27.2859 19.9959 26.8166 19.9959 26.8166C19.9959 26.8166 21.3725 27.2859 22.7898 27.2697C23.1889 27.2616 23.5881 27.2212 23.9709 27.1241C25.2009 26.7843 23.9383 27.7875 22.1871 28.3539Z" fill="#0D0B0A"/>
<path d="M22.7898 27.2616C22.6677 27.6661 22.4559 28.0383 22.1789 28.3538C21.6495 28.9606 20.8675 29.3409 19.9959 29.3409C19.1244 29.3409 18.3424 28.9606 17.8129 28.3619C17.536 28.0545 17.3242 27.6823 17.202 27.2697C18.6193 27.2858 19.9959 26.1693 19.9959 26.1693C19.9959 26.1693 21.3725 27.2778 22.7898 27.2616Z" fill="#F48FB1"/>
<path d="M17.6012 21.3067C17.7234 20.6271 17.2591 19.9798 16.1921 20.0203C15.1657 20.0607 14.5141 21.0397 14.3919 21.7193C14.2697 22.399 15.1576 22.132 16.1676 22.3181C17.1777 22.5041 17.479 21.9863 17.6012 21.3067Z" fill="#F9E6D8"/>
<path d="M22.3988 21.1934C22.2767 20.5138 22.7409 19.8665 23.808 19.907C24.8343 19.9474 25.486 20.9264 25.6082 21.6061C25.7303 22.2857 24.8425 22.0187 23.8324 22.2048C22.8224 22.3828 22.521 21.865 22.3988 21.1934Z" fill="#F9E6D8"/>
<path d="M16.8518 14.9716C16.9088 14.8017 16.2409 11.9942 15.6625 11.2903C15.0842 10.5864 18.6519 14.292 18.6519 14.292L16.8518 14.9716Z" fill="#8B6C60"/>
<path d="M23.2948 14.8665C23.2378 14.6966 23.9057 11.8891 24.484 11.1852C25.0624 10.4813 21.4946 14.1869 21.4946 14.1869L23.2948 14.8665Z" fill="#8B6C60"/>
<path d="M18.489 24.1385C18.489 23.3456 19.1651 23.1919 20.0041 23.1919C20.8431 23.1919 21.5191 23.3375 21.5191 24.1385C21.5191 24.9395 20.338 26.0236 20.0041 26.0236C19.6294 26.0156 18.489 24.9314 18.489 24.1385Z" fill="#24201B"/>
<path d="M19.6298 24.3894C19.6298 24.5917 19.4099 24.7535 19.1411 24.7535C18.8723 24.7535 18.6523 24.5917 18.6523 24.3894C18.6523 24.1871 18.8723 23.7745 19.1411 23.7745C19.4099 23.7745 19.6298 24.1871 19.6298 24.3894Z" fill="#0D0B0A"/>
<path d="M21.3074 24.3894C21.3074 24.5917 21.0875 24.7535 20.8187 24.7535C20.5499 24.7535 20.33 24.5917 20.33 24.3894C20.33 24.1871 20.5499 23.7745 20.8187 23.7745C21.0875 23.7745 21.3074 24.1871 21.3074 24.3894Z" fill="#0D0B0A"/>
<path d="M16.6883 22.755C16.5661 22.7955 16.4195 22.8278 16.2647 22.8521C15.7841 22.9168 15.2302 22.8036 14.7496 22.4071C14.6682 22.3424 14.5867 22.2615 14.5053 22.1725C14.212 21.8408 14.3424 21.3553 14.7496 21.1854C14.8474 21.145 14.9614 21.1045 15.0673 21.0721C15.5479 20.9427 16.1262 20.9427 16.6801 21.3715C16.7779 21.4524 16.8675 21.5333 16.9408 21.6061C17.4132 22.0997 17.3155 22.5447 16.6883 22.755Z" fill="white"/>
<path d="M17.0146 21.5414C16.9332 21.4524 16.8436 21.3715 16.7458 21.2986C16.2571 20.9184 15.6869 20.8132 15.0516 20.9831C14.9538 21.0074 14.8479 21.0478 14.7176 21.0964C14.4895 21.1935 14.3266 21.3795 14.2778 21.6142C14.2289 21.8326 14.2859 22.0592 14.4407 22.2372C14.5221 22.3262 14.6036 22.4152 14.6932 22.4799C15.076 22.7954 15.5322 22.9653 16.0046 22.9653C16.0942 22.9653 16.192 22.9572 16.2816 22.9492C16.4526 22.9249 16.5992 22.8925 16.7296 22.844C17.145 22.6983 17.2834 22.4799 17.3242 22.3181C17.3568 22.1482 17.3405 21.8812 17.0146 21.5414ZM14.5791 22.1158C14.4651 21.9864 14.4162 21.8245 14.457 21.6627C14.4977 21.4928 14.6199 21.3472 14.7909 21.2744C14.9131 21.2258 15.0109 21.1935 15.1005 21.1692C15.1249 21.1611 15.1493 21.1611 15.1819 21.1611C15.0353 21.331 14.9131 21.5414 14.8642 21.7922C14.8235 22.0106 14.8479 22.2129 14.905 22.4071C14.8724 22.3828 14.8398 22.3666 14.8154 22.3504C14.7339 22.2695 14.6525 22.1967 14.5791 22.1158ZM17.1368 22.2695C17.0961 22.4313 16.9332 22.5689 16.6644 22.666C16.6318 22.6741 16.5911 22.6822 16.5585 22.6903C16.6725 22.5365 16.7621 22.3504 16.8029 22.1401C16.8354 21.9459 16.8273 21.7598 16.7866 21.5899C16.8192 21.6142 16.8517 21.6465 16.8762 21.6708C17.088 21.8893 17.1776 22.0996 17.1368 22.2695Z" fill="#0D0B0A"/>
<path d="M23.2624 22.6738C23.3846 22.7143 23.5312 22.7466 23.686 22.7709C24.1666 22.8356 24.7205 22.7224 25.2011 22.3259C25.2825 22.2612 25.364 22.1803 25.4454 22.0913C25.7387 21.7596 25.6083 21.2741 25.2011 21.1042C25.1033 21.0638 24.9893 21.0233 24.8834 20.9909C24.4028 20.8615 23.8245 20.8615 23.2706 21.2903C23.1728 21.3712 23.0832 21.4521 23.0099 21.5249C22.5375 22.0185 22.6352 22.4635 23.2624 22.6738Z" fill="white"/>
<path d="M25.2824 21.1043C25.152 21.0477 25.0461 21.0154 24.9484 20.9911C24.3131 20.8131 23.7429 20.9183 23.2541 21.3066C23.1564 21.3794 23.0668 21.4603 22.9853 21.5493C22.6595 21.8892 22.6432 22.1642 22.684 22.3261C22.7247 22.4879 22.8632 22.7063 23.2786 22.852C23.4008 22.8924 23.5474 22.9329 23.7266 22.9571C23.8162 22.9733 23.9139 22.9733 24.0035 22.9733C24.476 22.9733 24.9321 22.8034 25.315 22.4879C25.4046 22.4151 25.486 22.3341 25.5675 22.2452C25.7222 22.0752 25.7874 21.8487 25.7304 21.6222C25.6734 21.3875 25.5186 21.2014 25.2824 21.1043ZM23.3356 22.6659C23.0668 22.5769 22.9039 22.4393 22.8632 22.2694C22.8224 22.0995 22.912 21.8892 23.1238 21.6626C23.1483 21.6303 23.189 21.606 23.2134 21.5817C23.1727 21.7516 23.1645 21.9377 23.1971 22.1319C23.2379 22.3422 23.3193 22.5283 23.4415 22.6821C23.4089 22.6821 23.3682 22.674 23.3356 22.6659ZM25.4208 22.1157C25.3475 22.2047 25.2661 22.2775 25.1846 22.3422C25.1602 22.3665 25.1276 22.3827 25.095 22.3989C25.152 22.2128 25.1765 22.0024 25.1358 21.784C25.0869 21.5332 24.9728 21.3228 24.8181 21.1529C24.8425 21.161 24.8669 21.1529 24.8995 21.161C24.9891 21.1853 25.0869 21.2176 25.2091 21.2662C25.3801 21.339 25.5023 21.4765 25.543 21.6545C25.5838 21.8163 25.5349 21.9862 25.4208 22.1157Z" fill="#0D0B0A"/>
</svg>
