<svg width="24" height="21" viewBox="0 0 24 21" fill="none" xmlns="http://www.w3.org/2000/svg">
<path d="M0 3.28458C0 5.09788 2.25 6.56906 5.01723 6.56906C6.56033 6.56906 7.94826 6.10718 8.87068 5.3887C9.60343 4.81562 10.0345 4.08004 10.0345 3.28458C10.0345 1.47127 7.78447 9.15527e-05 5.01723 9.15527e-05C2.57758 9.15527e-05 0.543103 1.14624 0.0948275 2.66018C0.0258621 2.86546 0 3.07074 0 3.28458Z" fill="#24201B"/>
<path d="M24 3.28445C24 5.09776 21.75 6.56894 18.9827 6.56894C17.4396 6.56894 16.0517 6.10706 15.1293 5.38858C14.4138 4.82406 13.9741 4.08847 13.9741 3.28445C13.9741 1.47114 16.2241 -3.05176e-05 18.9914 -3.05176e-05C21.431 -3.05176e-05 23.4655 1.14612 23.9138 2.66006C23.9741 2.86534 24 3.07062 24 3.28445Z" fill="#24201B"/>
<path d="M23.9999 3.28452C23.9999 5.09783 23.1034 8.10005 20.3362 8.10005C18.7931 8.10005 16.0517 6.10712 15.1379 5.38864C15.1293 5.34587 15.1207 5.31166 15.112 5.26889C14.7931 3.60955 16.5948 1.86466 19.1379 1.39423C21.181 1.00933 23.0862 1.55674 23.9137 2.66012C23.9741 2.8654 23.9999 3.07068 23.9999 3.28452Z" fill="#F48FB1"/>
<path d="M0 3.28452C0 5.09783 0.89655 8.10005 3.66379 8.10005C5.20689 8.10005 7.94826 6.10712 8.86205 5.38864C8.87067 5.34587 8.8793 5.31166 8.88792 5.26889C9.20688 3.60955 7.40516 1.86466 4.86206 1.39423C2.81896 1.00933 0.913792 1.55674 0.0862069 2.66012C0.0258621 2.8654 0 3.07068 0 3.28452Z" fill="#F48FB1"/>
<path d="M0 11.9164C0 5.64675 5.68965 0.0101013 12 0.0101013C18.3103 0.0101013 24 5.65531 24 11.9164C24 18.1774 18.3189 21 12 21C5.68103 21 0 18.1774 0 11.9164Z" fill="#24201B"/>
<path d="M6.5861 11.8804C5.35335 11.8804 4.34473 10.8797 4.34473 9.65655C4.34473 8.43342 5.35335 7.43268 6.5861 7.43268C7.81886 7.43268 8.82748 8.43342 8.82748 9.65655C8.82748 10.8797 7.81886 11.8804 6.5861 11.8804ZM6.5861 7.9972C5.66369 7.9972 4.91369 8.74134 4.91369 9.65655C4.91369 10.5718 5.66369 11.3159 6.5861 11.3159C7.50851 11.3159 8.25851 10.5718 8.25851 9.65655C8.25851 8.74134 7.50851 7.9972 6.5861 7.9972Z" fill="#5CC7DC"/>
<path d="M17.0345 11.8804C15.8017 11.8804 14.7931 10.8797 14.7931 9.65655C14.7931 8.43342 15.8017 7.43268 17.0345 7.43268C18.2672 7.43268 19.2758 8.43342 19.2758 9.65655C19.2758 10.8797 18.2672 11.8804 17.0345 11.8804ZM17.0345 7.9972C16.1121 7.9972 15.3621 8.74134 15.3621 9.65655C15.3621 10.5718 16.1121 11.3159 17.0345 11.3159C17.9569 11.3159 18.7069 10.5718 18.7069 9.65655C18.7069 8.74134 17.9569 7.9972 17.0345 7.9972Z" fill="#5CC7DC"/>
<path d="M12 10.5719C11.138 10.5719 10.4397 11.2648 10.4397 12.1201C10.4397 12.8984 11.0259 12.0602 11.7845 11.9148V12.4109C11.7845 12.5306 11.8794 12.6247 12 12.6247C12.1207 12.6247 12.2156 12.5306 12.2156 12.4109V11.9148C12.9742 12.0602 13.5604 12.907 13.5604 12.1201C13.5604 11.2648 12.8621 10.5719 12 10.5719Z" fill="#F48FB1"/>
</svg>
