<svg width="27" height="21" viewBox="0 0 27 21" fill="none" xmlns="http://www.w3.org/2000/svg">
<path d="M12.9091 21C13.6457 21 14.2429 19.3142 14.2429 17.2347C14.2429 15.1552 13.6457 13.4695 12.9091 13.4695C12.1725 13.4695 11.5753 15.1552 11.5753 17.2347C11.5753 19.3142 12.1725 21 12.9091 21Z" fill="#995068"/>
<path d="M8.24965 3.4486C7.17034 6.52928 5.23986 11.8948 4.96784 11.7579C4.60807 11.5611 0.264496 0.770116 0.0187988 0.162537L8.24965 3.4486Z" fill="#80A6CB"/>
<path d="M25.9661 0.137517C25.9661 0.137517 21.3768 11.5446 21.0083 11.7414C20.6398 11.9468 16.9982 1.34412 16.9982 1.34412C16.9982 1.34412 23.5267 -0.427276 25.9661 0.137517Z" fill="#80A6CB"/>
<path d="M8.98673 1.34397C8.98673 1.34397 8.68838 2.21684 8.24963 3.44911L0.0187847 0.163046C0.0100098 0.145931 0.0100098 0.137373 0.0100098 0.137373C2.44943 -0.435976 8.98673 1.34397 8.98673 1.34397Z" fill="#393430"/>
<path d="M17.042 1.31775C17.042 1.31775 17.3403 2.18205 17.7791 3.42289L25.9924 0.136822C26.0012 0.119707 26.0099 0.111149 26.0099 0.111149C23.5705 -0.453643 17.042 1.31775 17.042 1.31775Z" fill="#393430"/>
<path d="M18.0951 6.30673C17.9196 6.30673 17.7529 6.31529 17.5774 6.3324C17.5598 5.96443 17.4984 5.60502 17.4019 5.26272C16.8403 3.26027 14.9713 1.78839 12.7512 1.78839C10.7944 1.78839 9.10962 2.93509 8.35498 4.59524C8.10929 5.1258 7.96889 5.69915 7.93379 6.30673C6.07351 6.31529 4.4677 7.3593 3.66919 8.89108C3.73939 9.35318 3.85346 9.8324 4.03774 10.3287C4.29221 11.0476 4.66953 11.8006 5.1697 12.5708C5.31887 12.7505 5.45927 12.9388 5.62599 13.127C5.81904 13.3495 6.02964 13.572 6.26656 13.7688C6.52103 13.9828 6.80183 14.1796 7.10895 14.3336C7.67932 14.6246 8.01276 15.1808 8.27601 15.8055C8.54803 16.4644 8.72353 17.1918 8.98678 17.7737C9.88181 20.2639 11.6807 20.1869 12.9443 18.8263C12.953 18.8177 12.9881 18.7236 12.9969 18.7065C12.9969 18.7322 13.032 18.8263 13.0495 18.8263C14.3131 20.1869 16.1208 20.2639 17.007 17.7737C17.2703 17.1918 17.4458 16.4559 17.7178 15.7969C17.9723 15.1723 18.3145 14.616 18.8849 14.3336C19.2885 14.1368 19.6307 13.8715 19.9291 13.5806C20.1835 13.341 20.4029 13.0842 20.6135 12.8275C20.6837 12.7419 20.7451 12.6564 20.8153 12.5708C21.3243 11.8006 21.6928 11.0476 21.9473 10.3287C22.1316 9.79817 22.2632 9.28472 22.3246 8.79695C21.5173 7.31651 19.9291 6.30673 18.0951 6.30673Z" fill="#393430"/>
<path d="M22.342 8.8741C21.526 7.39366 19.9377 6.38388 18.1038 6.38388C17.9283 6.38388 17.7528 6.39244 17.586 6.40955C17.5685 6.04158 17.5071 5.68217 17.4105 5.34843C16.849 3.33743 14.9799 1.86554 12.7598 1.86554C10.803 1.86554 9.11827 3.0208 8.36363 4.67239C8.12671 5.20295 7.97753 5.7763 7.95121 6.38388C7.02107 6.39244 6.15236 6.64916 5.41526 7.11127C4.68695 7.56481 4.08148 8.19806 3.68661 8.95112C3.30929 6.48657 4.33595 4.44134 6.02073 3.00369C6.8719 2.26774 7.89856 1.6944 8.99542 1.30931C10.2678 0.847207 11.6454 0.641828 12.9617 0.710288H13.0582C14.3744 0.641828 15.7521 0.847207 17.0244 1.30931C18.1213 1.6944 19.148 2.26774 20.0079 3.00369C21.6664 4.42422 22.693 6.44378 22.342 8.8741Z" fill="#BFC0C4"/>
<path d="M14.7869 16.4217C14.5851 16.1821 13.9621 16.3618 13.4005 16.8239C13.2338 16.9608 13.1022 17.0978 12.9969 17.2432C12.8828 17.1063 12.7512 16.9608 12.5932 16.8239C12.0316 16.3618 11.4086 16.1821 11.2068 16.4217C11.005 16.6613 11.2945 17.2261 11.8561 17.6882C12.2598 18.0134 12.681 18.1931 12.9705 18.1845C12.9793 18.1845 12.9881 18.1845 13.0056 18.1845C13.0144 18.1845 13.0232 18.1845 13.0407 18.1845C13.3303 18.1931 13.7515 18.0134 14.1552 17.6882C14.6992 17.2261 14.9975 16.6613 14.7869 16.4217Z" fill="#0D0B0A"/>
<path d="M18.955 10.8764C17.7002 11.2101 16.8403 10.7138 16.5507 10.226C16.2787 9.78105 16.3577 9.25905 16.7789 8.82262C17.0421 8.54878 17.437 8.30061 17.9635 8.12946C18.0161 8.11235 18.0775 8.09523 18.1302 8.07812C19.2709 7.74438 20.28 8.06956 20.4994 8.83973C20.6223 9.30183 20.2274 10.5427 18.955 10.8764Z" fill="#80A6CB"/>
<path d="M18.1821 8.60873C18.1821 9.44736 17.8664 10.1234 17.4804 10.1234C17.1208 10.1234 16.8225 9.55005 16.7787 8.79699C17.0418 8.52315 17.4366 8.27498 17.9628 8.10384C18.0155 8.08672 18.0769 8.06961 18.1295 8.05249C18.1558 8.2322 18.1821 8.42046 18.1821 8.60873Z" fill="#393430"/>
<path d="M18.612 9.51577C19.0965 9.51577 19.4892 9.35868 19.4892 9.16491C19.4892 8.97114 19.0965 8.81406 18.612 8.81406C18.1276 8.81406 17.7349 8.97114 17.7349 9.16491C17.7349 9.35868 18.1276 9.51577 18.612 9.51577Z" fill="white"/>
<path d="M7.02124 10.8764C8.27605 11.2101 9.13599 10.7138 9.42557 10.226C9.69759 9.78105 9.61861 9.25905 9.19742 8.82262C8.93417 8.54878 8.5393 8.30061 8.01281 8.12946C7.96016 8.11235 7.89873 8.09523 7.84608 8.07812C6.70535 7.74438 5.69624 8.06956 5.47686 8.83973C5.35401 9.30183 5.74888 10.5427 7.02124 10.8764Z" fill="#80A6CB"/>
<path d="M7.7926 8.5917C7.7926 9.43033 8.10838 10.1064 8.49432 10.1064C8.85395 10.1064 9.15219 9.53302 9.19604 8.77996C8.9329 8.50612 8.53818 8.25796 8.01189 8.08681C7.95926 8.06969 7.89786 8.05258 7.84523 8.03546C7.81892 8.20661 7.7926 8.39487 7.7926 8.5917Z" fill="#393430"/>
<path d="M7.56453 9.51577C8.04897 9.51577 8.44168 9.35868 8.44168 9.16491C8.44168 8.97114 8.04897 8.81406 7.56453 8.81406C7.08009 8.81406 6.68738 8.97114 6.68738 9.16491C6.68738 9.35868 7.08009 9.51577 7.56453 9.51577Z" fill="white"/>
</svg>
