<svg width="20" height="21" viewBox="0 0 20 21" fill="none" xmlns="http://www.w3.org/2000/svg">
<path d="M8.27722 5.64889C5.19008 -0.0227606 0.25391 -0.273575 0.0502731 0.130965C-0.153364 0.535504 0.310929 4.67799 0.563439 6.66833C0.726349 7.93858 1.24766 8.37548 1.61421 8.58584C1.40242 8.91757 1.28024 9.31402 1.28024 9.73474C1.28024 10.9484 2.27399 11.9354 3.49582 11.9354C4.71764 11.9354 5.71139 10.9484 5.71139 9.73474C5.71139 9.60528 5.6951 9.48392 5.67881 9.36256C7.88624 9.4192 9.97963 8.78811 8.27722 5.64889Z" fill="#F48FB1"/>
<path d="M11.7228 5.64799C14.8099 -0.0236525 19.7461 -0.282558 19.9497 0.130073C20.1534 0.542703 19.6891 4.6771 19.4366 6.66743C19.2737 7.93769 18.7523 8.37459 18.3858 8.58495C18.5976 8.91667 18.7198 9.31312 18.7198 9.73384C18.7198 10.9475 17.726 11.9345 16.5042 11.9345C15.2824 11.9345 14.2886 10.9475 14.2886 9.73384C14.2886 9.60439 14.3049 9.48303 14.3212 9.36167C12.1138 9.4183 10.0204 8.78722 11.7228 5.64799Z" fill="#F48FB1"/>
<path d="M17.5794 13.1642L16.7893 15.4943V15.5024C16.7893 15.5024 16.6753 15.8342 16.5449 16.2306C16.3413 16.8455 16.0725 17.6222 16.0643 17.6384C15.6326 18.3909 15.0299 19.0543 14.3049 19.5883L14.2968 19.5964C13.7266 20.0171 13.0831 20.3569 12.3826 20.5915C12.3663 20.5996 12.3419 20.6077 12.3256 20.6158C12.0405 20.7129 11.7391 20.7857 11.4377 20.8424C11.0712 20.9152 10.6965 20.9556 10.3136 20.9718C10.2159 20.9799 10.11 20.9799 10.0122 20.9799C10.0122 20.9799 10.0122 20.9799 10.0041 20.9799C9.92264 20.9799 9.84118 20.9799 9.75973 20.9718C9.3606 20.9556 8.96147 20.9152 8.57863 20.8424C8.2691 20.7857 7.96772 20.7048 7.67448 20.6077C6.03724 20.0656 4.69323 18.9734 3.91127 17.5737V17.5656L3.45512 16.2306L3.23519 15.5753V15.5672L2.4125 13.2127C2.27402 12.792 2.217 12.3632 2.23329 11.9344C2.26588 11.2467 2.49395 10.5751 2.91752 10.0088L5.45076 6.60256C5.81731 6.10094 6.31419 5.72067 6.86808 5.47794C7.30794 5.28377 7.78852 5.18668 8.28539 5.18668H11.8613C13.0098 5.18668 14.085 5.74494 14.7448 6.67538L17.1233 10.0331C17.7749 10.9392 17.9378 12.1043 17.5794 13.1642Z" fill="#8B6C60"/>
<path d="M13.8419 17.0112C13.3776 15.0856 11.8381 13.0953 10.0135 13.0953C8.18081 13.0953 6.64131 15.0856 6.18516 17.0112C5.28916 16.4368 4.3117 16.1779 3.45642 16.2507L3.91257 17.5857V17.5938C4.69454 18.9935 6.03854 20.0857 7.67579 20.6278C7.95273 20.7411 8.26226 20.822 8.58808 20.8786C8.95463 20.9514 9.35376 20.9838 9.76103 20.9919C9.84249 20.9919 9.92394 21 10.0054 21C10.0054 21 10.0054 21 10.0135 21C10.1113 21 10.2172 21 10.3149 20.9919C10.7059 20.9838 11.0806 20.9433 11.4309 20.8786C11.7485 20.822 12.0499 20.7411 12.3269 20.6278C12.3432 20.6197 12.3676 20.6116 12.3839 20.6035C13.0844 20.3689 13.7279 20.0291 14.2981 19.6084C14.3062 19.6084 14.3062 19.6084 14.3062 19.6003C15.0312 19.0663 15.6258 18.4028 16.0656 17.6504C16.0738 17.6342 16.3344 16.8575 16.5462 16.2426C15.6991 16.186 14.7298 16.4449 13.8419 17.0112Z" fill="#F9E6D8"/>
<path d="M12.1871 19.3539C11.4947 19.5723 10.7209 19.726 9.99591 19.7018C9.27097 19.726 8.50529 19.5804 7.81292 19.362C6.06164 18.7956 4.79909 17.7923 6.02092 18.1241C6.39561 18.2293 6.80288 18.2697 7.20201 18.2697C8.61933 18.2859 9.99591 17.8166 9.99591 17.8166C9.99591 17.8166 11.3725 18.2859 12.7898 18.2697C13.1889 18.2616 13.5881 18.2212 13.9709 18.1241C15.2009 17.7843 13.9383 18.7875 12.1871 19.3539Z" fill="#0D0B0A"/>
<path d="M12.7898 18.2616C12.6677 18.6661 12.4559 19.0383 12.1789 19.3538C11.6495 19.9606 10.8675 20.3409 9.99593 20.3409C9.12436 20.3409 8.3424 19.9606 7.81294 19.3619C7.53599 19.0545 7.32421 18.6823 7.20203 18.2697C8.61934 18.2858 9.99593 17.1693 9.99593 17.1693C9.99593 17.1693 11.3725 18.2778 12.7898 18.2616Z" fill="#F48FB1"/>
<path d="M7.60123 12.3067C7.72341 11.6271 7.25912 10.9798 6.19206 11.0203C5.16573 11.0607 4.51409 12.0397 4.39191 12.7193C4.26972 13.399 5.15758 13.132 6.16762 13.3181C7.17766 13.5041 7.47905 12.9863 7.60123 12.3067Z" fill="#F9E6D8"/>
<path d="M12.3988 12.1934C12.2767 11.5138 12.7409 10.8665 13.808 10.907C14.8343 10.9474 15.486 11.9264 15.6082 12.6061C15.7303 13.2857 14.8425 13.0187 13.8324 13.2048C12.8224 13.3828 12.521 12.865 12.3988 12.1934Z" fill="#F9E6D8"/>
<path d="M6.85178 5.97163C6.9088 5.80173 6.24086 2.99422 5.66253 2.29032C5.08421 1.58642 8.65193 5.29201 8.65193 5.29201L6.85178 5.97163Z" fill="#8B6C60"/>
<path d="M13.2948 5.86653C13.2378 5.69662 13.9057 2.88912 14.484 2.18522C15.0624 1.48132 11.4946 5.1869 11.4946 5.1869L13.2948 5.86653Z" fill="#8B6C60"/>
<path d="M8.48901 15.1385C8.48901 14.3456 9.16509 14.1919 10.0041 14.1919C10.8431 14.1919 11.5191 14.3375 11.5191 15.1385C11.5191 15.9395 10.338 17.0236 10.0041 17.0236C9.62938 17.0156 8.48901 15.9314 8.48901 15.1385Z" fill="#24201B"/>
<path d="M9.6298 15.3894C9.6298 15.5917 9.40987 15.7535 9.14107 15.7535C8.87227 15.7535 8.65234 15.5917 8.65234 15.3894C8.65234 15.1871 8.87227 14.7745 9.14107 14.7745C9.40987 14.7745 9.6298 15.1871 9.6298 15.3894Z" fill="#0D0B0A"/>
<path d="M11.3074 15.3894C11.3074 15.5917 11.0875 15.7535 10.8187 15.7535C10.5499 15.7535 10.33 15.5917 10.33 15.3894C10.33 15.1871 10.5499 14.7745 10.8187 14.7745C11.0875 14.7745 11.3074 15.1871 11.3074 15.3894Z" fill="#0D0B0A"/>
<path d="M6.68827 13.755C6.56609 13.7955 6.41947 13.8278 6.2647 13.8521C5.78412 13.9168 5.23022 13.8036 4.74964 13.4071C4.66819 13.3424 4.58673 13.2615 4.50528 13.1725C4.21204 12.8408 4.34237 12.3553 4.74964 12.1854C4.84739 12.145 4.96142 12.1045 5.06732 12.0721C5.5479 11.9427 6.12623 11.9427 6.68012 12.3715C6.77787 12.4524 6.86747 12.5333 6.94078 12.6061C7.41322 13.0997 7.31547 13.5447 6.68827 13.755Z" fill="white"/>
<path d="M7.01465 12.5414C6.93319 12.4524 6.84359 12.3715 6.74584 12.2986C6.25712 11.9184 5.68693 11.8132 5.05158 11.9831C4.95384 12.0074 4.84795 12.0478 4.71762 12.0964C4.48954 12.1935 4.32663 12.3795 4.27776 12.6142C4.22889 12.8326 4.28591 13.0592 4.44067 13.2372C4.52213 13.3262 4.60358 13.4152 4.69318 13.4799C5.07602 13.7954 5.53217 13.9653 6.00461 13.9653C6.09421 13.9653 6.19195 13.9572 6.28155 13.9492C6.45261 13.9249 6.59923 13.8925 6.72955 13.844C7.14497 13.6983 7.28345 13.4799 7.32417 13.3181C7.35676 13.1482 7.34047 12.8812 7.01465 12.5414ZM4.57914 13.1158C4.46511 12.9864 4.41623 12.8245 4.45696 12.6627C4.49769 12.4928 4.61987 12.3472 4.79093 12.2744C4.91311 12.2258 5.01086 12.1935 5.10046 12.1692C5.12489 12.1611 5.14933 12.1611 5.18191 12.1611C5.03529 12.331 4.91311 12.5414 4.86424 12.7922C4.82351 13.0106 4.84795 13.2129 4.90496 13.4071C4.87238 13.3828 4.8398 13.3666 4.81536 13.3504C4.73391 13.2695 4.65245 13.1967 4.57914 13.1158ZM7.13683 13.2695C7.0961 13.4313 6.93319 13.5689 6.66439 13.666C6.63181 13.6741 6.59108 13.6822 6.5585 13.6903C6.67254 13.5365 6.76214 13.3504 6.80286 13.1401C6.83545 12.9459 6.8273 12.7598 6.78657 12.5899C6.81915 12.6142 6.85174 12.6465 6.87617 12.6708C7.08796 12.8893 7.17756 13.0996 7.13683 13.2695Z" fill="#0D0B0A"/>
<path d="M13.2624 13.6738C13.3846 13.7143 13.5312 13.7466 13.686 13.7709C14.1666 13.8356 14.7205 13.7224 15.2011 13.3259C15.2825 13.2612 15.364 13.1803 15.4454 13.0913C15.7387 12.7596 15.6083 12.2741 15.2011 12.1042C15.1033 12.0638 14.9893 12.0233 14.8834 11.9909C14.4028 11.8615 13.8245 11.8615 13.2706 12.2903C13.1728 12.3712 13.0832 12.4521 13.0099 12.5249C12.5375 13.0185 12.6352 13.4635 13.2624 13.6738Z" fill="white"/>
<path d="M15.2824 12.1043C15.152 12.0477 15.0462 12.0154 14.9484 11.9911C14.3131 11.8131 13.7429 11.9183 13.2541 12.3066C13.1564 12.3794 13.0668 12.4603 12.9853 12.5493C12.6595 12.8892 12.6432 13.1642 12.684 13.3261C12.7247 13.4879 12.8632 13.7063 13.2786 13.852C13.4008 13.8924 13.5474 13.9329 13.7266 13.9571C13.8162 13.9733 13.9139 13.9733 14.0035 13.9733C14.476 13.9733 14.9321 13.8034 15.315 13.4879C15.4046 13.4151 15.486 13.3341 15.5675 13.2452C15.7222 13.0752 15.7874 12.8487 15.7304 12.6222C15.6734 12.3875 15.5186 12.2014 15.2824 12.1043ZM13.3356 13.6659C13.0668 13.5769 12.9039 13.4393 12.8632 13.2694C12.8224 13.0995 12.912 12.8892 13.1238 12.6626C13.1483 12.6303 13.189 12.606 13.2134 12.5817C13.1727 12.7516 13.1645 12.9377 13.1971 13.1319C13.2379 13.3422 13.3193 13.5283 13.4415 13.6821C13.4089 13.6821 13.3682 13.674 13.3356 13.6659ZM15.4208 13.1157C15.3475 13.2047 15.2661 13.2775 15.1846 13.3422C15.1602 13.3665 15.1276 13.3827 15.095 13.3989C15.152 13.2128 15.1765 13.0024 15.1358 12.784C15.0869 12.5332 14.9728 12.3228 14.8181 12.1529C14.8425 12.161 14.8669 12.1529 14.8995 12.161C14.9891 12.1853 15.0869 12.2176 15.2091 12.2662C15.3801 12.339 15.5023 12.4765 15.543 12.6545C15.5838 12.8163 15.5349 12.9862 15.4208 13.1157Z" fill="#0D0B0A"/>
</svg>
