<svg width="40" height="40" viewBox="0 0 40 40" fill="none" xmlns="http://www.w3.org/2000/svg">
<circle cx="20" cy="20" r="19" fill="white" stroke="#3E2723" stroke-width="2"/>
<path d="M8 12.2846C8 14.0979 10.25 15.5691 13.0172 15.5691C14.5603 15.5691 15.9483 15.1072 16.8707 14.3887C17.6034 13.8156 18.0345 13.08 18.0345 12.2846C18.0345 10.4713 15.7845 9.00009 13.0172 9.00009C10.5776 9.00009 8.5431 10.1462 8.09483 11.6602C8.02586 11.8655 8 12.0707 8 12.2846Z" fill="#24201B"/>
<path d="M32 12.2845C32 14.0978 29.75 15.5689 26.9827 15.5689C25.4396 15.5689 24.0517 15.1071 23.1293 14.3886C22.4138 13.8241 21.9741 13.0885 21.9741 12.2845C21.9741 10.4711 24.2241 8.99997 26.9914 8.99997C29.431 8.99997 31.4655 10.1461 31.9138 11.6601C31.9741 11.8653 32 12.0706 32 12.2845Z" fill="#24201B"/>
<path d="M31.9999 12.2845C31.9999 14.0978 31.1034 17.1001 28.3362 17.1001C26.7931 17.1001 24.0517 15.1071 23.1379 14.3886C23.1293 14.3459 23.1207 14.3117 23.112 14.2689C22.7931 12.6095 24.5948 10.8647 27.1379 10.3942C29.181 10.0093 31.0862 10.5567 31.9137 11.6601C31.9741 11.8654 31.9999 12.0707 31.9999 12.2845Z" fill="#F48FB1"/>
<path d="M8 12.2845C8 14.0978 8.89655 17.1001 11.6638 17.1001C13.2069 17.1001 15.9483 15.1071 16.8621 14.3886C16.8707 14.3459 16.8793 14.3117 16.8879 14.2689C17.2069 12.6095 15.4052 10.8647 12.8621 10.3942C10.819 10.0093 8.91379 10.5567 8.08621 11.6601C8.02586 11.8654 8 12.0707 8 12.2845Z" fill="#F48FB1"/>
<path d="M8 20.9164C8 14.6468 13.6896 9.0101 20 9.0101C26.3103 9.0101 32 14.6553 32 20.9164C32 27.1774 26.3189 30 20 30C13.681 30 8 27.1774 8 20.9164Z" fill="#24201B"/>
<path d="M14.5861 20.8804C13.3533 20.8804 12.3447 19.8797 12.3447 18.6565C12.3447 17.4334 13.3533 16.4327 14.5861 16.4327C15.8189 16.4327 16.8275 17.4334 16.8275 18.6565C16.8275 19.8797 15.8189 20.8804 14.5861 20.8804ZM14.5861 16.9972C13.6637 16.9972 12.9137 17.7413 12.9137 18.6565C12.9137 19.5718 13.6637 20.3159 14.5861 20.3159C15.5085 20.3159 16.2585 19.5718 16.2585 18.6565C16.2585 17.7413 15.5085 16.9972 14.5861 16.9972Z" fill="#5CC7DC"/>
<path d="M25.0345 20.8804C23.8017 20.8804 22.7931 19.8797 22.7931 18.6565C22.7931 17.4334 23.8017 16.4327 25.0345 16.4327C26.2672 16.4327 27.2758 17.4334 27.2758 18.6565C27.2758 19.8797 26.2672 20.8804 25.0345 20.8804ZM25.0345 16.9972C24.1121 16.9972 23.3621 17.7413 23.3621 18.6565C23.3621 19.5718 24.1121 20.3159 25.0345 20.3159C25.9569 20.3159 26.7069 19.5718 26.7069 18.6565C26.7069 17.7413 25.9569 16.9972 25.0345 16.9972Z" fill="#5CC7DC"/>
<path d="M20 19.5719C19.138 19.5719 18.4397 20.2648 18.4397 21.1201C18.4397 21.8984 19.0259 21.0602 19.7845 20.9148V21.4109C19.7845 21.5306 19.8794 21.6247 20 21.6247C20.1207 21.6247 20.2156 21.5306 20.2156 21.4109V20.9148C20.9742 21.0602 21.5604 21.907 21.5604 21.1201C21.5604 20.2648 20.8621 19.5719 20 19.5719Z" fill="#F48FB1"/>
</svg>
