<svg width="20" height="25" viewBox="0 0 20 25" fill="none" xmlns="http://www.w3.org/2000/svg">
<path d="M10.8122 2.01822C10.3683 1.56358 10.395 1.41203 10.4127 1.38529C10.5459 1.09111 10.4216 0.734523 10.1198 0.600805C9.82684 0.467086 9.47176 0.59189 9.3386 0.894985C9.19657 1.20699 9.20545 1.51009 9.29422 1.79536C8.78822 1.43877 8.28223 0.912814 8.30886 0.663207C8.34437 0.342282 8.11357 0.0481018 7.79399 0.00352894C7.47442 -0.0321293 7.18148 0.199649 7.13709 0.520574C7.0572 1.18917 7.50105 1.78644 7.96266 2.23217C4.43847 3.11471 1.82861 6.22589 1.82861 9.94327C1.82861 14.3471 5.48596 17.9129 9.9955 17.9129C14.505 17.9129 18.1624 14.3471 18.1624 9.94327C18.1624 5.81582 14.94 2.41938 10.8122 2.01822Z" fill="#80A6CB"/>
<path d="M14.2039 17.6463C14.4646 17.0839 14.4706 16.532 14.2172 16.4136C13.9639 16.2952 13.5471 16.6551 13.2865 17.2175C13.0258 17.7799 13.0198 18.3318 13.2732 18.4502C13.5265 18.5687 13.9432 18.2088 14.2039 17.6463Z" fill="#0D0B0A"/>
<path d="M6.94487 18.4505C7.19822 18.3321 7.19227 17.7802 6.93159 17.2178C6.67091 16.6554 6.2542 16.2955 6.00085 16.4139C5.7475 16.5323 5.75344 17.0842 6.01413 17.6467C6.27481 18.2091 6.69152 18.569 6.94487 18.4505Z" fill="#0D0B0A"/>
<path d="M6.49799 17.4492L9.83576 24.777C9.96891 25.0801 10.3329 25.0712 10.466 24.7681L13.7062 17.4225C14.2388 16.2101 13.5197 14.7481 12.3835 14.7481H7.82067C6.66665 14.7481 5.93873 16.2368 6.49799 17.4492Z" fill="#24201B"/>
<path d="M11.6555 14.2045C11.0873 14.2045 10.5725 14.356 10.1553 14.5967C9.73803 14.356 9.21428 14.2045 8.65503 14.2045C7.27021 14.2045 6.14282 15.0692 6.14282 16.13C6.14282 17.1908 7.27021 18.0556 8.65503 18.0556C9.22316 18.0556 9.73803 17.904 10.1553 17.6633C10.5725 17.904 11.0873 18.0556 11.6555 18.0556C13.0403 18.0556 14.1677 17.1908 14.1677 16.13C14.1677 15.0692 13.0403 14.2045 11.6555 14.2045Z" fill="white"/>
<path d="M18.1003 13.1704C19.1494 13.1704 19.9999 11.8094 19.9999 10.1305C19.9999 8.45163 19.1494 7.09064 18.1003 7.09064C17.0511 7.09064 16.2006 8.45163 16.2006 10.1305C16.2006 11.8094 17.0511 13.1704 18.1003 13.1704Z" fill="#E98F5B"/>
<path d="M19.32 10.2144C19.392 9.43 19.0546 8.75745 18.5664 8.71226C18.0782 8.66706 17.624 9.26633 17.552 10.0508C17.48 10.8352 17.8174 11.5077 18.3056 11.5529C18.7938 11.5981 19.248 10.9989 19.32 10.2144Z" fill="#0D0B0A"/>
<path d="M1.89969 13.1704C2.94886 13.1704 3.79938 11.8094 3.79938 10.1305C3.79938 8.45163 2.94886 7.09064 1.89969 7.09064C0.85052 7.09064 0 8.45163 0 10.1305C0 11.8094 0.85052 13.1704 1.89969 13.1704Z" fill="#E98F5B"/>
<path d="M1.96763 11.5508C2.45583 11.5056 2.79323 10.8331 2.72122 10.0486C2.64921 9.2642 2.19506 8.66493 1.70685 8.71013C1.21865 8.75532 0.881252 9.42787 0.953262 10.2123C1.02527 10.9967 1.47942 11.596 1.96763 11.5508Z" fill="#0D0B0A"/>
</svg>
