<svg width="40" height="40" viewBox="0 0 40 40" fill="none" xmlns="http://www.w3.org/2000/svg">
<circle cx="20" cy="20" r="19" fill="white" stroke="#3E2723" stroke-width="2"/>
<path d="M20.8122 9.01822C20.3683 8.56358 20.395 8.41203 20.4127 8.38529C20.5459 8.09111 20.4216 7.73452 20.1198 7.6008C19.8268 7.46709 19.4718 7.59189 19.3386 7.89499C19.1966 8.207 19.2054 8.51009 19.2942 8.79536C18.7882 8.43877 18.2822 7.91281 18.3089 7.66321C18.3444 7.34228 18.1136 7.0481 17.794 7.00353C17.4744 6.96787 17.1815 7.19965 17.1371 7.52057C17.0572 8.18917 17.5011 8.78644 17.9627 9.23217C14.4385 10.1147 11.8286 13.2259 11.8286 16.9433C11.8286 21.3471 15.486 24.9129 19.9955 24.9129C24.505 24.9129 28.1624 21.3471 28.1624 16.9433C28.1624 12.8158 24.94 9.41938 20.8122 9.01822Z" fill="#80A6CB"/>
<path d="M24.2039 24.6463C24.4646 24.0839 24.4706 23.532 24.2172 23.4136C23.9639 23.2952 23.5471 23.6551 23.2865 24.2175C23.0258 24.7799 23.0198 25.3318 23.2732 25.4502C23.5265 25.5687 23.9432 25.2088 24.2039 24.6463Z" fill="#0D0B0A"/>
<path d="M16.9449 25.4505C17.1982 25.3321 17.1923 24.7802 16.9316 24.2178C16.6709 23.6554 16.2542 23.2955 16.0008 23.4139C15.7475 23.5323 15.7534 24.0842 16.0141 24.6467C16.2748 25.2091 16.6915 25.569 16.9449 25.4505Z" fill="#0D0B0A"/>
<path d="M16.498 24.4492L19.8358 31.777C19.9689 32.0801 20.3329 32.0712 20.466 31.7681L23.7062 24.4225C24.2388 23.2101 23.5197 21.7481 22.3835 21.7481H17.8207C16.6666 21.7481 15.9387 23.2368 16.498 24.4492Z" fill="#24201B"/>
<path d="M21.6555 21.2045C21.0873 21.2045 20.5725 21.356 20.1553 21.5967C19.738 21.356 19.2143 21.2045 18.655 21.2045C17.2702 21.2045 16.1428 22.0692 16.1428 23.13C16.1428 24.1908 17.2702 25.0556 18.655 25.0556C19.2232 25.0556 19.738 24.904 20.1553 24.6633C20.5725 24.904 21.0873 25.0556 21.6555 25.0556C23.0403 25.0556 24.1677 24.1908 24.1677 23.13C24.1677 22.0692 23.0403 21.2045 21.6555 21.2045Z" fill="white"/>
<path d="M28.1003 20.1704C29.1494 20.1704 29.9999 18.8094 29.9999 17.1305C29.9999 15.4516 29.1494 14.0906 28.1003 14.0906C27.0511 14.0906 26.2006 15.4516 26.2006 17.1305C26.2006 18.8094 27.0511 20.1704 28.1003 20.1704Z" fill="#E98F5B"/>
<path d="M29.32 17.2144C29.392 16.43 29.0546 15.7575 28.5664 15.7123C28.0782 15.6671 27.624 16.2663 27.552 17.0508C27.48 17.8352 27.8174 18.5077 28.3056 18.5529C28.7938 18.5981 29.248 17.9989 29.32 17.2144Z" fill="#0D0B0A"/>
<path d="M11.8997 20.1704C12.9489 20.1704 13.7994 18.8094 13.7994 17.1305C13.7994 15.4516 12.9489 14.0906 11.8997 14.0906C10.8505 14.0906 10 15.4516 10 17.1305C10 18.8094 10.8505 20.1704 11.8997 20.1704Z" fill="#E98F5B"/>
<path d="M11.9676 18.5508C12.4558 18.5056 12.7932 17.8331 12.7212 17.0486C12.6492 16.2642 12.1951 15.6649 11.7069 15.7101C11.2186 15.7553 10.8813 16.4279 10.9533 17.2123C11.0253 17.9967 11.4794 18.596 11.9676 18.5508Z" fill="#0D0B0A"/>
</svg>
